<svg width="21" height="17" viewBox="0 0 21 17" fill="none" xmlns="http://www.w3.org/2000/svg">
<path d="M2.14453 16.8083C1.59453 16.8083 1.1237 16.6125 0.732031 16.2208C0.340365 15.8292 0.144531 15.3583 0.144531 14.8083V2.80835C0.144531 2.25835 0.340365 1.78752 0.732031 1.39585C1.1237 1.00418 1.59453 0.80835 2.14453 0.80835H18.1445C18.6945 0.80835 19.1654 1.00418 19.557 1.39585C19.9487 1.78752 20.1445 2.25835 20.1445 2.80835V14.8083C20.1445 15.3583 19.9487 15.8292 19.557 16.2208C19.1654 16.6125 18.6945 16.8083 18.1445 16.8083H2.14453ZM18.1445 4.80835L10.6695 9.48335C10.5862 9.53335 10.4987 9.57085 10.407 9.59585C10.3154 9.62085 10.2279 9.63335 10.1445 9.63335C10.0612 9.63335 9.9737 9.62085 9.88203 9.59585C9.79037 9.57085 9.70286 9.53335 9.61953 9.48335L2.14453 4.80835V14.8083H18.1445V4.80835ZM10.1445 7.80835L18.1445 2.80835H2.14453L10.1445 7.80835ZM2.14453 5.05835V3.58335V3.60835V3.59585V5.05835Z" fill="#A8A8A8"/>
</svg>
