<svg width="28" height="16" viewBox="0 0 28 16" fill="none" xmlns="http://www.w3.org/2000/svg">
<g id="Group 9">
<g id="SM">
<path d="M7.98939 5.05429C7.93527 4.50866 7.70304 4.08477 7.29269 3.78264C6.88233 3.48052 6.32542 3.32945 5.62196 3.32945C5.14397 3.32945 4.74038 3.39709 4.41119 3.53237C4.08201 3.66315 3.82948 3.84578 3.65362 4.08026C3.48226 4.31475 3.39658 4.58081 3.39658 4.87842C3.38756 5.12644 3.43942 5.34289 3.55216 5.52778C3.6694 5.71266 3.82948 5.87274 4.03241 6.00802C4.23533 6.1388 4.46982 6.25379 4.73587 6.35299C5.00192 6.44769 5.28601 6.52886 5.58814 6.5965L6.83273 6.89412C7.43699 7.0294 7.99164 7.20977 8.49669 7.43524C9.00174 7.66071 9.43915 7.93804 9.80892 8.26722C10.1787 8.59641 10.465 8.98421 10.668 9.43064C10.8754 9.87707 10.9814 10.3889 10.9859 10.9661C10.9814 11.8139 10.7649 12.5489 10.3365 13.1712C9.91264 13.789 9.29936 14.2692 8.49669 14.6119C7.69853 14.9501 6.73578 15.1192 5.60843 15.1192C4.49011 15.1192 3.51608 14.9479 2.68636 14.6052C1.86114 14.2624 1.2163 13.7551 0.751832 13.0832C0.291875 12.4068 0.0506231 11.5703 0.0280762 10.5738H2.86222C2.89379 11.0382 3.02681 11.426 3.2613 11.7372C3.5003 12.0438 3.81821 12.2761 4.21503 12.4339C4.61637 12.5872 5.06956 12.6639 5.57461 12.6639C6.07064 12.6639 6.50129 12.5917 6.86655 12.4474C7.23632 12.3031 7.52267 12.1025 7.72559 11.8454C7.92851 11.5884 8.02997 11.293 8.02997 10.9593C8.02997 10.6482 7.93753 10.3866 7.75264 10.1747C7.57227 9.96275 7.30621 9.78237 6.95448 9.63356C6.60726 9.48476 6.18112 9.34947 5.67607 9.22772L4.16769 8.84893C2.99976 8.56484 2.07759 8.12067 1.40118 7.51641C0.724775 6.91215 0.388827 6.09821 0.393336 5.07458C0.388827 4.23584 0.612041 3.50306 1.06298 2.87626C1.51843 2.24946 2.14298 1.76019 2.93663 1.40846C3.73028 1.05673 4.63215 0.880859 5.64225 0.880859C6.67039 0.880859 7.56776 1.05673 8.33435 1.40846C9.10546 1.76019 9.7052 2.24946 10.1336 2.87626C10.562 3.50306 10.7829 4.22907 10.7965 5.05429H7.98939Z" fill="#29ABE2"/>
<path d="M12.9559 1.07025H16.5679L20.3829 10.3776H20.5452L24.3601 1.07025H27.9721V14.9231H25.1312V5.90656H25.0162L21.4313 14.8554H19.4968L15.9118 5.87274H15.7968V14.9231H12.9559V1.07025Z" fill="#29ABE2"/>
</g>
</g>
</svg>
