<svg width="25" height="24" viewBox="0 0 25 24" fill="none" xmlns="http://www.w3.org/2000/svg">
<mask id="mask0_112272_1247" style="mask-type:alpha" maskUnits="userSpaceOnUse" x="0" y="0" width="25" height="24">
<rect x="0.248535" width="24" height="24" fill="#D9D9D9"/>
</mask>
<g mask="url(#mask0_112272_1247)">
<path d="M9.79911 15.15L18.2741 6.675C18.4741 6.475 18.7116 6.375 18.9866 6.375C19.2616 6.375 19.4991 6.475 19.6991 6.675C19.8991 6.875 19.9991 7.1125 19.9991 7.3875C19.9991 7.6625 19.8991 7.9 19.6991 8.1L10.4991 17.3C10.2991 17.5 10.0658 17.6 9.79911 17.6C9.53245 17.6 9.29911 17.5 9.09911 17.3L4.79911 13C4.59911 12.8 4.50328 12.5625 4.51161 12.2875C4.51995 12.0125 4.62411 11.775 4.82411 11.575C5.02411 11.375 5.26161 11.275 5.53661 11.275C5.81161 11.275 6.04911 11.375 6.24911 11.575L9.79911 15.15Z" fill="white"/>
</g>
</svg>
